<svg width="30" height="30" fill="none" xmlns="http://www.w3.org/2000/svg"><g opacity=".8" clip-path="url(#clip0_4_31)" fill="#fff"><path d="M14.977 0C10.11 0 6.152 3.959 6.152 8.824v12.352c0 4.866 3.959 8.824 8.825 8.824s8.824-3.959 8.824-8.824V8.824C23.801 3.96 19.843 0 14.977 0zM22 21.176a7.032 7.032 0 01-7.024 7.024 7.033 7.033 0 01-7.025-7.024V8.824A7.032 7.032 0 0114.977 1.8 7.032 7.032 0 0122 8.824v12.352z"/><path d="M14.977 5.968a.9.9 0 00-.9.9v4.142a.9.9 0 001.8 0V6.868a.9.9 0 00-.9-.9z"/></g><defs><clipPath id="clip0_4_31"><path fill="#fff" d="M0 0h30v30H0z"/></clipPath></defs></svg>